<?xml version="1.0"?>
<svg width="440" height="250" xmlns="http://www.w3.org/2000/svg" xmlns:svg="http://www.w3.org/2000/svg">
 <!-- Created with SVG-edit - https://github.com/SVG-Edit/svgedit-->
  <path d="M 404 18.3 c 0 8.3 -28 15.1 -62.6 15.1 m 62.6 -15.1 l 0 0 c 0 8.3 -28 15.1 -62.6 15.1 c -34.6 0 -62.6 -6.7 -62.6 -15.1 m 0 0 l 0 0 c 0 -8.3 28 -15.1 62.6 -15.1 c 34.6 0 62.6 6.7 62.6 15.1 l 0 60.4 c 0 8.3 -28 15.1 -62.6 15.1 c -34.6 0 -62.6 -6.7 -62.6 -15.1 l 0 -60.4 z" fill="none" id="svg_27" stroke="#000000" stroke-dasharray="null" stroke-linecap="null" stroke-linejoin="null" stroke-width="5"/>
  <rect fill="none" height="80" id="svg_22" stroke="#000000" stroke-dasharray="null" stroke-linecap="null" stroke-linejoin="null" stroke-width="5" width="170" x="260" y="160"/>
  <path d="M 7.9 240.5 l 38.9 -82 l 155.8 0 l -38.9 82 l -155.8 0 z" fill="none" id="svg_19" stroke="#000000" stroke-dasharray="null" stroke-linecap="null" stroke-linejoin="null" stroke-width="5"/>
  <text font-family="serif" font-size="24" text-anchor="middle" x="340" xml:space="preserve" y="60" fill="#000000" id="svg_15" stroke="#000000" stroke-dasharray="null" stroke-linecap="null" stroke-linejoin="null" stroke-width="0">Off-Chain</text>
  <text font-family="serif" font-size="24" text-anchor="middle" x="340" xml:space="preserve" y="80" fill="#000000" id="svg_15" stroke="#000000" stroke-dasharray="null" stroke-linecap="null" stroke-linejoin="null" stroke-width="0">Database</text>
  <text fill="#000000" font-family="serif" font-size="24" id="svg_16" stroke="#000000" stroke-dasharray="null" stroke-linecap="null" stroke-linejoin="null" stroke-width="0" text-anchor="middle" x="110" xml:space="preserve" y="210">Actions</text>
  <text fill="#000000" font-family="serif" font-size="24" id="svg_18" stroke="#000000" stroke-dasharray="null" stroke-linecap="null" stroke-linejoin="null" stroke-width="0" text-anchor="middle" x="340" xml:space="preserve" y="210">Filter Handler</text>
  <path d="M 220.6 211.7 l 7.5 -7.5 l -14.5 0 l -14.5 0 l 0 -4.7 l 0 -4.7 l 14.4 0 c 7.9 0 14.4 -0.2 14.4 -0.5 c 0 -0.3 -3.1 -3.7 -7 -7.5 l -7 -7 l 6.5 0 l 6.5 0 l 9.9 9.9 l 9.9 9.9 l -9.9 9.9 l -9.9 9.9 l -6.8 0 l -6.8 0 l 7.5 -7.5 l 0 0 z" fill="none" id="svg_24" stroke="#000000" stroke-dasharray="null" stroke-linecap="null" stroke-linejoin="null" stroke-width="5">
        </path>
  <path transform="rotate(90,339.9,130.6)" d="M 314.3 130.6 l 14.8 -15.6 l 0 7.8 l 21.5 0 l 0 -7.8 l 14.8 15.6 l -14.8 15.6 l 0 -7.8 l -21.5 0 l 0 7.8 l -14.8 -15.6 z" fill="none" id="svg_28" stroke="#000000" stroke-dasharray="null" stroke-linecap="null" stroke-linejoin="null" stroke-width="5">
        </path>
</svg>
