<?xml version="1.0"?>
<svg width="730" height="250" xmlns="http://www.w3.org/2000/svg" xmlns:svg="http://www.w3.org/2000/svg">
 <!-- Created with SVG-edit - https://github.com/SVG-Edit/svgedit-->
  <path d="M 404 24.1 c 0 7.7 -28 13.9 -62.6 13.9 m 62.6 -13.9 l 0 0 c 0 7.7 -28 13.9 -62.6 13.9 c -34.6 0 -62.6 -6.2 -62.6 -13.9 m 0 0 l 0 0 c 0 -7.7 28 -13.9 62.6 -13.9 c 34.6 0 62.6 6.2 62.6 13.9 l 0 55.7 c 0 7.7 -28 13.9 -62.6 13.9 c -34.6 0 -62.6 -6.2 -62.6 -13.9 l 0 -55.7 z" fill="none" id="svg_27" stroke="#000000" stroke-dasharray="null" stroke-linecap="null" stroke-linejoin="null" stroke-width="5"/>
  <rect fill="none" height="80" id="svg_22" stroke="#000000" stroke-dasharray="null" stroke-linecap="null" stroke-linejoin="null" stroke-width="5" width="170" x="260" y="160"/>
  <path d="M -0.1 240.5 l 40.5 -82 l 162.2 0 l -40.5 82 l -162.2 0 z" fill="none" id="svg_19" stroke="#000000" stroke-dasharray="null" stroke-linecap="null" stroke-linejoin="null" stroke-width="5"/>
  <path d="M 487 239.5 l 47.2 -82 l 188.8 0 l -47.2 82 l -188.8 0 z" fill="none" id="svg_21" stroke="#000000" stroke-dasharray="null" stroke-linecap="null" stroke-linejoin="null" stroke-width="5"/>
  <text fill="#000000" font-family="serif" font-size="24" id="svg_15" stroke="#000000" stroke-dasharray="null" stroke-linecap="null" stroke-linejoin="null" stroke-width="0" text-anchor="middle" x="340" xml:space="preserve" y="70">Database</text>
  <text fill="#000000" font-family="serif" font-size="24" id="svg_16" stroke="#000000" stroke-dasharray="null" stroke-linecap="null" stroke-linejoin="null" stroke-width="0" text-anchor="middle" x="99" xml:space="preserve" y="210">Query Requests</text>
  <text fill="#000000" font-family="serif" font-size="24" id="svg_17" stroke="#000000" stroke-dasharray="null" stroke-linecap="null" stroke-linejoin="null" stroke-width="0" text-anchor="middle" x="599" xml:space="preserve" y="210">Query Results</text>
  <text fill="#000000" font-family="serif" font-size="24" id="svg_18" stroke="#000000" stroke-dasharray="null" stroke-linecap="null" stroke-linejoin="null" stroke-width="0" text-anchor="middle" x="340" xml:space="preserve" y="210">Query Handler</text>
  <path d="M 220.6 211.7 l 7.5 -7.5 l -14.5 0 l -14.5 0 l 0 -4.7 l 0 -4.7 l 14.4 0 c 7.9 0 14.4 -0.2 14.4 -0.5 c 0 -0.3 -3.1 -3.7 -7 -7.5 l -7 -7 l 6.5 0 l 6.5 0 l 9.9 9.9 l 9.9 9.9 l -9.9 9.9 l -9.9 9.9 l -6.8 0 l -6.8 0 l 7.5 -7.5 l 0 0 z" fill="none" id="svg_24" stroke="#000000" stroke-dasharray="null" stroke-linecap="null" stroke-linejoin="null" stroke-width="5"/>
  <path d="M 462.3 212.7 l 7.5 -7.5 l -14.5 0 l -14.5 0 l 0 -4.7 l 0 -4.7 l 14.4 0 c 7.9 0 14.4 -0.2 14.4 -0.5 c 0 -0.3 -3.1 -3.7 -7 -7.5 l -7 -7 l 6.5 0 l 6.5 0 l 9.9 9.9 l 9.9 9.9 l -9.9 9.9 l -9.9 9.9 l -6.8 0 l -6.8 0 l 7.5 -7.5 l 0 0 z" fill="none" id="svg_26" stroke="#000000" stroke-dasharray="null" stroke-linecap="null" stroke-linejoin="null" stroke-width="5"/>
  <path transform="matrix(0,1,-1,0,467.2,-212)" d="M 338.3 137.7 l 7.5 -7.5 l -14.5 0 l -14.5 0 l 0 -4.7 l 0 -4.7 l 14.4 0 c 7.9 0 14.4 -0.2 14.4 -0.5 c 0 -0.3 -3.1 -3.7 -7 -7.5 l -7 -7 l 6.5 0 l 6.5 0 l 9.9 9.9 l 9.9 9.9 l -9.9 9.9 l -9.9 9.9 l -6.8 0 l -6.8 0 l 7.5 -7.5 l 0 0 z" fill="none" id="svg_26" stroke="#000000" stroke-dasharray="null" stroke-linecap="null" stroke-linejoin="null" stroke-width="5"/>
</svg>
